HIERARCHY
ROOT hip
{
	OFFSET 0.000000 0.000000 0.000000 
	CHANNELS 6 Xposition Yposition Zposition Zrotation Xrotation Yrotation
	JOINT abdomen
	{
		OFFSET 0.000000 3.402643 0.000000 
		CHANNELS 3 Zrotation Xrotation Yrotation
		JOINT chest
		{
			OFFSET 0.000000 8.438565 -0.680529 
			CHANNELS 3 Zrotation Xrotation Yrotation
			JOINT neck
			{
				OFFSET 0.000000 10.207942 -0.272212 
				CHANNELS 3 Zrotation Xrotation Yrotation
				JOINT head
				{
					OFFSET 0.000000 3.130431 0.000000 
					CHANNELS 3 Zrotation Xrotation Yrotation
					End Site
					{
						OFFSET 0.000000 3.130435 0.000000 
					}
				}
			}
			JOINT lCollar
			{
				OFFSET 3.470700 6.669187 -0.816635 
				CHANNELS 3 Zrotation Xrotation Yrotation
				JOINT lShldr
				{
					OFFSET 3.198488 0.000000 0.000000 
					CHANNELS 3 Zrotation Xrotation Yrotation
					JOINT lForeArm
					{
						OFFSET 10.139888 0.000000 0.000000 
						CHANNELS 3 Zrotation Xrotation Yrotation
						JOINT lHand
						{
							OFFSET 8.370511 0.000000 0.000000 
							CHANNELS 3 Zrotation Xrotation Yrotation
							End Site
							{
								OFFSET 4.083176 0.000000 0.000000 
							}
						}
					}
				}
			}
			JOINT rCollar
			{
				OFFSET -3.470700 6.669187 -0.816635 
				CHANNELS 3 Zrotation Xrotation Yrotation
				JOINT rShldr
				{
					OFFSET -3.198488 0.000000 0.000000 
					CHANNELS 3 Zrotation Xrotation Yrotation
					JOINT rForeArm
					{
						OFFSET -10.139888 0.000000 0.000000 
						CHANNELS 3 Zrotation Xrotation Yrotation
						JOINT rHand
						{
							OFFSET -8.370511 0.000000 0.000000 
							CHANNELS 3 Zrotation Xrotation Yrotation
							End Site
							{
								OFFSET -4.083176 0.000000 0.000000 
							}
						}
					}
				}
			}
		}
	}
	JOINT lThigh
	{
		OFFSET 5.308129 -1.633274 1.361059 
		CHANNELS 3 Zrotation Xrotation Yrotation
		JOINT lShin
		{
			OFFSET -2.041588 -20.007561 0.000000 
			CHANNELS 3 Zrotation Xrotation Yrotation
			JOINT lFoot
			{
				OFFSET 0.000000 -19.190928 -1.224953 
				CHANNELS 3 Zrotation Xrotation Yrotation
				End Site
				{
					OFFSET 0.000000 -2.449906 4.627600 
				}
			}
		}
	}
	JOINT rThigh
	{
		OFFSET -5.308129 -1.633274 1.361059 
		CHANNELS 3 Zrotation Xrotation Yrotation
		JOINT rShin
		{
			OFFSET 2.041588 -20.007561 0.000000 
			CHANNELS 3 Zrotation Xrotation Yrotation
			JOINT rFoot
			{
				OFFSET 0.000000 -19.190928 -1.224953 
				CHANNELS 3 Zrotation Xrotation Yrotation
				End Site
				{
					OFFSET 0.000000 -2.449906 4.627600 
				}
			}
		}
	}
}
MOTION
Frames: 11
Frame Time: 0.033333
0.000000 48.013634 0.291666 -0.000000 -0.000010 -0.000000 1.202246 -2.421340 0.334003 2.548842 -0.195122 -0.840923 -0.000000 -0.000003 -0.000000 -0.000000 0.000001 -0.000000 -5.687435 -0.268816 2.011532 -72.947174 15.738562 10.363277 -8.608580 3.601588 -19.084557 5.932204 -0.060074 -3.367898 6.900984 -1.684785 -3.558836 67.114143 8.235458 23.933863 -8.042002 43.203629 20.392626 -7.302543 -5.489312 -1.613833 2.716729 -7.544848 0.879697 -2.461448 14.507864 -0.684168 -0.514492 -7.353733 0.318911 -4.381215 -7.522904 -0.504117 2.187937 14.476753 -0.270496 1.368068 -7.560343 -1.448114 
0.000000 48.013634 0.291666 -0.000000 -0.000010 -0.000000 1.006485 -2.021175 0.270047 2.128915 -0.165900 -0.696958 -0.000000 -0.000003 -0.000000 -0.000000 0.000001 -0.000000 -5.687435 -0.268816 2.011532 -72.947174 15.738562 10.363277 -8.608580 3.601588 -19.084557 5.932204 -0.060074 -3.367898 6.705153 -1.445699 -3.307835 62.523010 7.313069 26.610214 -12.757753 31.831102 29.149372 11.527971 4.676856 10.076526 2.725423 -7.541709 0.880370 -2.472253 14.556937 -0.644426 -0.499963 -7.393266 0.257929 -4.381215 -7.522904 -0.504117 2.178341 14.489078 -0.298200 1.361624 -7.627651 -1.460258 
0.000000 48.013634 0.291666 -0.000000 -0.000010 -0.000000 0.781544 -1.572119 0.197357 1.650395 -0.126902 -0.543219 -0.000000 -0.000003 -0.000000 -0.000000 0.000001 -0.000000 -5.687435 -0.268816 2.011532 -72.947174 15.738562 10.363277 -8.608580 3.601588 -19.084557 5.932204 -0.060074 -3.367898 6.480344 -1.175432 -3.018013 57.476635 6.299453 29.610481 -13.673109 18.864658 37.772045 28.297508 14.946525 23.515837 2.754566 -7.540507 0.893742 -2.471841 14.545412 -0.693082 -0.537112 -7.431485 0.359991 -4.381215 -7.522904 -0.504117 2.249222 14.526827 -0.278489 1.281757 -7.643812 -1.455789 
0.000000 48.013634 0.291666 -0.000000 -0.000010 -0.000000 0.556750 -1.132755 0.137960 1.191408 -0.097629 -0.398361 -0.000000 -0.000003 -0.000000 -0.000000 0.000001 -0.000000 -5.687435 -0.268816 2.011532 -72.947174 15.738562 10.363277 -8.608580 3.601588 -19.084557 5.932204 -0.060074 -3.367898 6.262177 -0.917631 -2.737624 52.641392 5.332667 32.540909 -10.899390 6.858343 46.582020 40.554375 22.330338 37.901775 2.783661 -7.540164 0.897441 -2.428833 14.582115 -0.700076 -0.630626 -7.442211 0.355782 -4.381215 -7.522904 -0.504117 2.259139 14.543697 -0.240534 1.316728 -7.572601 -1.495575 
0.000000 48.013634 0.291666 -0.000000 -0.000010 -0.000000 0.351590 -0.712878 0.082499 0.751953 -0.058588 -0.253137 -0.000000 -0.000003 -0.000000 -0.000000 0.000001 -0.000000 -5.687435 -0.268816 2.011532 -72.947174 15.738562 10.363277 -8.608580 3.601588 -19.084557 5.932204 -0.060074 -3.367898 6.050380 -0.682961 -2.476426 48.094803 4.459393 35.335480 -5.030736 -3.015421 56.344067 49.178997 25.580536 52.668793 2.805038 -7.543519 0.890896 -2.542168 14.615292 -0.616077 -0.575688 -7.510517 0.317217 -4.381215 -7.522904 -0.504117 2.249333 14.554721 -0.229205 1.309885 -7.553290 -1.488664 
0.000000 48.013634 0.291666 -0.000000 -0.000010 -0.000000 0.156253 -0.332031 0.030202 0.341797 -0.029290 -0.117012 -0.000000 -0.000003 -0.000000 -0.000000 0.000001 -0.000000 -5.687435 -0.268816 2.011532 -72.947174 15.738562 10.363277 -8.608580 3.601588 -19.084557 5.932204 -0.060074 -3.367898 5.846223 -0.452683 -2.224707 43.992004 3.683275 37.904583 3.063087 -9.810045 66.921928 55.920647 24.657576 65.841408 2.817480 -7.549266 0.893334 -2.505278 14.641945 -0.602133 -0.673077 -7.579643 0.303395 -4.381215 -7.522904 -0.504117 2.289197 14.570468 -0.293038 1.255729 -7.722540 -1.442503 
0.000000 48.013634 0.291666 -0.000000 -0.000010 -0.000000 -0.000000 -0.019529 -0.000000 0.009766 -0.009762 -0.009764 -0.000000 -0.000003 -0.000000 -0.000000 0.000001 -0.000000 -5.687435 -0.268816 2.011532 -72.947174 15.738562 10.363277 -8.608580 3.601588 -19.084557 5.932204 -0.060074 -3.367898 5.686999 -0.280510 -2.030972 40.708744 3.081929 39.991348 11.282013 -13.094901 76.574562 61.630928 21.221251 75.178047 2.825477 -7.545337 0.903583 -2.542511 14.644270 -0.635570 -0.609803 -7.549910 0.308638 -4.381215 -7.522904 -0.504117 2.279312 14.590025 -0.242516 1.304940 -7.697229 -1.424197 
0.000000 48.013634 0.291666 -0.000000 -0.000010 -0.000000 0.009766 -0.039067 0.000007 0.039063 -0.009764 -0.019524 -0.000000 -0.000003 -0.000000 -0.000000 0.000001 -0.000000 -5.687435 -0.268816 2.011532 -72.947174 15.738562 10.363277 -8.608580 3.601588 -19.084557 5.932204 -0.060074 -3.367898 5.696332 -0.292555 -2.040651 40.616219 3.071281 40.774052 10.219706 -11.155762 77.781509 61.026501 20.447779 75.556686 2.825477 -7.545337 0.903583 -2.533839 14.663512 -0.695631 -0.550479 -7.596550 0.421135 -4.381215 -7.522904 -0.504117 2.339987 14.590855 -0.261132 1.203468 -7.667756 -1.471323 
0.000000 48.013634 0.291666 -0.000000 -0.000010 -0.000000 0.029297 -0.068360 0.000035 0.058594 -0.009762 -0.029287 -0.000000 -0.000003 -0.000000 -0.000000 0.000001 -0.000000 -5.687435 -0.268816 2.011532 -72.947174 15.738562 10.363277 -8.608580 3.601588 -19.084557 5.932204 -0.060074 -3.367898 5.705676 -0.303634 -2.060062 40.519356 3.064169 41.556950 9.081025 -9.276627 79.056572 60.416786 19.690691 75.942093 2.825477 -7.545337 0.903583 -2.473528 14.674157 -0.685153 -0.649185 -7.568704 0.405375 -4.381215 -7.522904 -0.504117 2.259835 14.594717 -0.288494 1.286821 -7.714318 -1.441631 
0.000000 48.013634 0.291666 -0.000000 -0.000010 -0.000000 0.039063 -0.087889 0.009826 0.087891 -0.009765 -0.039048 -0.000000 -0.000003 -0.000000 -0.000000 0.000001 -0.000000 -5.687435 -0.268816 2.011532 -72.947174 15.738562 10.363277 -8.608580 3.601588 -19.084557 5.932204 -0.060074 -3.367898 5.715030 -0.314714 -2.069741 40.418282 3.061105 42.330269 7.857198 -7.458821 80.419090 59.799976 18.933105 76.360367 2.825477 -7.545337 0.903583 -2.542511 14.644270 -0.635570 -0.628826 -7.579136 0.334888 -4.381215 -7.522904 -0.504117 2.259835 14.594717 -0.288494 1.268000 -7.782818 -1.435547 
0.000000 48.013634 0.291666 -0.000000 -0.000010 -0.000000 0.048828 -0.117187 0.009866 0.107422 -0.019526 -0.048791 -0.000000 -0.000003 -0.000000 -0.000000 0.000001 -0.000000 -5.687435 -0.268816 2.011532 -72.947174 15.738562 10.363277 -8.608580 3.601588 -19.084557 5.932204 -0.060074 -3.367898 5.733697 -0.337872 -2.089104 40.328354 3.053723 43.113216 6.537710 -5.710414 81.860397 59.201023 18.189949 76.775719 2.825477 -7.545337 0.903583 -2.432770 14.662333 -0.652059 -0.692977 -7.521064 0.328615 -4.381215 -7.522904 -0.504117 2.249914 14.594481 -0.238318 1.230652 -7.744903 -1.499366 
